<?xml version="1.0" encoding="UTF-8"?><svg id="a" xmlns="http://www.w3.org/2000/svg" xmlns:xlink="http://www.w3.org/1999/xlink" viewBox="0 0 64 64"><defs><style>.r{clip-path:url(#j);}.s{fill:#21409a;}.t{clip-path:url(#g);}.u{clip-path:url(#p);}.v{clip-path:url(#d);}.w{clip-path:url(#m);}.x{clip-path:url(#i);}.y{clip-path:url(#b);}.z{fill:#b5292f;}.aa{clip-path:url(#e);}.ab{clip-path:url(#f);}.ac{clip-path:url(#l);}.ad{clip-path:url(#o);}.ae{clip-path:url(#n);}.af{clip-path:url(#q);}.ag{clip-path:url(#k);}.ah{fill:none;}.ai{clip-path:url(#c);}.aj{fill:#ed1c24;}.ak{clip-path:url(#h);}.al{fill:#231f20;}</style><clipPath id="b"><rect class="ah" x=".24" y="15.04" width="63.14" height="18.91"/></clipPath><clipPath id="c"><polygon class="ah" points="8.73 27.23 .28 28.78 20.31 33.95 57.16 18.02 63.35 15.1 8.73 27.23"/></clipPath><clipPath id="d"><rect class="ah" y="14.92" width="64" height="19.15"/></clipPath><clipPath id="e"><path class="ah" d="m8.74,27.29L.29,28.84v-.06s0-.06,0-.06l20.03,5.17-.02.06-.02-.06,36.85-15.93,6.19-2.91.03.05v.06S8.74,27.29,8.74,27.29m-.02-.12v.06s0-.06,0-.06l55.17-12.24-6.69,3.15-36.89,15.94L0,28.77l8.72-1.61h0Z"/></clipPath><clipPath id="f"><rect class="ah" x="29.63" y="15.04" width="33.76" height="26.72"/></clipPath><clipPath id="g"><polygon class="ah" points="63.35 15.1 57.3 41.74 29.63 36.21 63.35 15.1"/></clipPath><clipPath id="h"><rect class="ah" x="29.37" y="14.92" width="34.14" height="26.95"/></clipPath><clipPath id="i"><path class="ah" d="m63.41,15.11l-6.07,26.7-22.37-4.47v-.06s0,.06,0,.06l-5.51-1.1L63.45,14.97l-.03.14m-.12-.03h.06s.03.06.03.06l-33.76,21.06v-.06s7.78,1.55,7.78,1.55v.06s0-.06,0-.06l19.9,3.98v.06s-.07-.01-.07-.01l6.06-26.64h0Z"/></clipPath><clipPath id="j"><rect class="ah" x="20.19" y="15.04" width="43.56" height="33.92"/></clipPath><clipPath id="k"><polygon class="ah" points="63.66 15.1 29.41 36.42 24.32 48.89 20.31 33.95 59.63 16.85 63.66 15.1"/></clipPath><clipPath id="l"><rect class="ah" x="20.19" y="15.04" width="43.56" height="34.04"/></clipPath><clipPath id="m"><path class="ah" d="m63.69,15.15l-34.23,21.29-5.16,12.63-4.07-15.16L63.64,15.05l.06.11m-.07-.1l.03.05.02.06-43.31,18.78,4.01,14.94-.06.02-.06-.02,5.11-12.5L63.63,15.05h0Z"/></clipPath><clipPath id="n"><rect class="ah" x="24.28" y="36.15" width="13.66" height="12.81"/></clipPath><clipPath id="o"><polygon class="ah" points="24.32 48.89 26.92 42.51 29.63 36.21 37.9 37.87 31.82 43.01 24.32 48.89"/></clipPath><clipPath id="p"><rect class="ah" x="24.11" y="36.03" width="13.95" height="13.05"/></clipPath><clipPath id="q"><path class="ah" d="m24.26,48.86l2.6-6.37,2.73-6.35,8.45,1.69-6.18,5.23-7.68,6.02.09-.21m.11.05l-.06-.02-.04-.05,7.5-5.88.04.05-.04-.05,6.09-5.14.04.05v.06s-4.04-.8-4.04-.8v-.06s0,.06,0,.06l-4.25-.85v-.06s.07.02.07.02l-2.71,6.3-.06-.02.06.02-2.6,6.37h0Z"/></clipPath></defs><g class="y"><g class="ai"><path class="z" d="m-.61,14.31h65.1v35.38H-.61V14.31Z"/></g></g><g class="v"><g class="aa"><path class="al" d="m-.61,14.31h65.1v35.38H-.61V14.31Z"/></g></g><g class="ab"><g class="t"><path class="aj" d="m-.61,14.31h65.1v35.38H-.61V14.31Z"/></g></g><g class="ak"><g class="x"><path class="al" d="m-.61,14.31h65.1v35.38H-.61V14.31Z"/></g></g><g class="r"><g class="ag"><path class="s" d="m-.61,14.31h65.1v35.38H-.61V14.31Z"/></g></g><g class="ac"><g class="w"><path class="al" d="m-.61,14.31h65.1v35.38H-.61V14.31Z"/></g></g><g class="ae"><g class="ad"><path class="s" d="m-.61,14.31h65.1v35.38H-.61V14.31Z"/></g></g><g class="u"><g class="af"><path class="al" d="m-.61,14.31h65.1v35.38H-.61V14.31Z"/></g></g></svg>